<svg xmlns="http://www.w3.org/2000/svg" width="40" height="43" viewBox="0 0 46 50">
	<path fill-rule="evenodd" d="M 39.32 2.91 C 35.62 2.06 29.62 0.36 21.52 1.01 C 14.79 1.54 8.82 3.7 3.38 5.86 C 3.21 5.98 3.05 6.1 2.88 6.22 C 2.88 6.22 2.88 6.22 2.88 6.22 C 2.85 6.26 2.82 6.29 2.78 6.31 C 2.35 6.54 1.91 6.84 1.56 7.12 C 1.42 7.22 1.32 7.45 1.3 7.62 C 1.27 7.89 0.82 8.39 0.76 8.64 C 0.75 8.7 0.78 8.77 0.78 8.83 C 0.79 8.86 0.81 8.9 0.82 8.93 C 0.87 9.03 0.88 9.15 0.84 9.25 C 0.82 9.31 0.8 9.38 0.77 9.44 C 0.69 10.17 0.87 10.76 1.07 11.4 C 1.09 11.47 1.09 11.54 1.08 11.61 C 1.07 11.67 1.06 11.74 1.05 11.8 C 1.09 11.91 1.1 12.05 1.06 12.2 C 0.93 12.65 1.32 13.09 1.69 13.44 C 1.81 13.54 1.96 13.58 2.11 13.54 C 2.39 13.47 2.7 13.43 2.99 13.58 C 3.83 14.03 4.79 14.68 5.77 14.52 C 7.68 14.22 10.84 13.25 13.89 12.26 C 14.23 12.15 14.57 12.47 14.47 12.82 C 13.64 15.7 12.56 21.13 12.35 22.16 C 12.08 23.53 9.57 31.66 9.2 33.52 C 8.84 35.39 6.52 43.41 5.95 45.9 C 5.85 46.31 5.76 46.75 5.66 47.18 C 5.64 47.3 5.66 47.42 5.72 47.53 C 5.97 47.98 6.12 49.4 6.43 49.53 C 6.56 49.59 6.64 49.67 6.68 49.76 C 6.84 50.1 7.34 50.08 7.51 49.74 C 8.36 47.98 9.55 44.98 9.99 43.73 C 11.02 40.84 13.7 37.05 14.67 35.94 C 15.64 34.83 15.1 32.36 15.99 30.95 C 16.87 29.54 18.11 27.17 18.72 26.11 C 19.6 24.58 22.14 21.71 23.78 19.51 C 25.05 17.83 24.57 16.47 27.19 14.17 C 27.64 13.77 27.73 13.33 27.67 12.84 C 27.66 12.74 27.68 12.64 27.72 12.56 C 27.76 12.48 27.8 12.41 27.84 12.33 C 27.91 12.21 27.91 12.07 27.86 11.94 C 27.72 11.61 27.63 11.26 27.47 10.93 C 27.29 10.55 28.01 9.9 28.53 9.97 C 28.56 9.97 28.59 9.97 28.63 9.98 C 28.67 9.96 28.71 9.94 28.77 9.92 C 29.26 9.79 29.78 9.8 30.29 9.88 C 33.17 10.11 36.05 10.93 37.37 10.54 C 38.86 10.09 40.44 9.63 41.23 9.44 C 41.75 9.31 41.16 12.63 40.36 15.27 C 40.35 15.29 40.35 15.32 40.35 15.35 C 40.29 15.96 40.13 16.57 39.87 17.18 C 39.85 17.24 39.81 17.3 39.76 17.34 C 39.32 17.77 38.83 18.17 38.43 18.6 C 37.04 20.1 36.33 22.45 34.61 23.59 C 33.18 24.54 31.44 25.15 30.3 26.48 C 29.94 26.89 29.74 27.42 29.35 27.82 C 28.81 28.38 28.1 28.5 27.45 28.87 C 27.22 29 27.06 29.1 26.96 29.23 C 26.9 29.31 26.81 29.37 26.71 29.4 C 26.08 29.59 25.6 29.78 25.71 30.23 C 26.05 31.62 30.84 31.08 35.25 29.59 C 39.66 28.1 40.12 25.75 41.86 24.04 C 44.21 21.74 44.85 20.8 45.79 16.04 C 46.73 11.28 43.91 3.96 39.32 2.91"></path>
</svg>
